# xmcd
#
# Track frame offsets:
#	150
#	21662
#	50928
#	96004
#	124535
#	153131
#
# Disc length: 2542 seconds
#
# Revision: 0
# Processed by: cddbd v1.5.2PL0 Copyright (c) Steve Scherf et al.
# Submitted via: EasyCDDAExtractor 10.0.3.1
#
DISCID=4909ec06
DTITLE=Paul Butterfield Blues Band - Tribal Stomp Reunion Show [CD1]
DYEAR=1978
DGENRE=Blues
TTITLE0=Chet Helms Intros
TTITLE1=Born In Chicago
TTITLE2=Our Love Is Drifting
TTITLE3=You're Lookin Good Tonight
TTITLE4=Shake Your Moneymaker
TTITLE5=Get Out My Life Woman
EXTD=
EXTT0=
EXTT1=
EXTT2=
EXTT3=
EXTT4=
EXTT5=
PLAYORDER=
